<svg xmlns="http://www.w3.org/2000/svg" width="39" height="40" viewBox="0 0 39 40">
  <metadata><?xpacket begin="﻿" id="W5M0MpCehiHzreSzNTczkc9d"?>
<x:xmpmeta xmlns:x="adobe:ns:meta/" x:xmptk="Adobe XMP Core 5.6-c138 79.159824, 2016/09/14-01:09:01        ">
   <rdf:RDF xmlns:rdf="http://www.w3.org/1999/02/22-rdf-syntax-ns#">
      <rdf:Description rdf:about=""/>
   </rdf:RDF>
</x:xmpmeta>
                                                                                                    
                                                                                                    
                                                                                                    
                                                                                                    
                                                                                                    
                                                                                                    
                                                                                                    
                                                                                                    
                                                                                                    
                                                                                                    
                                                                                                    
                                                                                                    
                                                                                                    
                                                                                                    
                                                                                                    
                                                                                                    
                                                                                                    
                                                                                                    
                                                                                                    
                                                                                                    
                           
<?xpacket end="w"?></metadata>
<defs>
    <style>
      .cls-1 {
        fill: #e1e1e1;
        fill-rule: evenodd;
      }
    </style>
  </defs>
  <path id="Forma_1" data-name="Forma 1" class="cls-1" d="M988.729,888.035a14.58,14.58,0,0,0,2.153-7.66A14.216,14.216,0,0,0,976.865,866a13.728,13.728,0,0,0-7.315,2.11,0.793,0.793,0,0,0-.251,1.075,0.751,0.751,0,0,0,1.047.258,12.236,12.236,0,0,1,6.519-1.88,12.67,12.67,0,0,1,12.494,12.812,12.977,12.977,0,0,1-2.126,7.151,0.8,0.8,0,0,0,.022.9l0.834,3.2-3.351-.921a0.746,0.746,0,0,0-.638.118,12.25,12.25,0,0,1-11.563,1.575,10.692,10.692,0,0,0-7.394-7.584,13.117,13.117,0,0,1,1.1-11.187,0.792,0.792,0,0,0-.245-1.075,0.75,0.75,0,0,0-1.049.251,14.732,14.732,0,0,0-1.517,11.689,10.248,10.248,0,0,0-1.041-.053,10.661,10.661,0,0,0-10.513,10.781,10.905,10.905,0,0,0,1.742,5.947l-0.815,3.121a0.8,0.8,0,0,0,.2.754,0.749,0.749,0,0,0,.736.2l3.119-.857a10.3,10.3,0,0,0,11.166-.064,0.792,0.792,0,0,0,.234-1.078,0.75,0.75,0,0,0-1.051-.24,8.812,8.812,0,0,1-9.8-.112,0.742,0.742,0,0,0-.62-0.105l-2.17.6,0.565-2.162a0.8,0.8,0,0,0-.116-0.656,9.313,9.313,0,0,1-1.666-5.347,8.992,8.992,0,1,1,17.979,0,9.4,9.4,0,0,1-.541,3.158,0.786,0.786,0,0,0,.455,1,0.756,0.756,0,0,0,.976-0.466,10.973,10.973,0,0,0,.634-3.693c0-.361-0.018-0.717-0.052-1.068a13.736,13.736,0,0,0,11.833-1.845l4.284,1.178a0.749,0.749,0,0,0,.736-0.2,0.792,0.792,0,0,0,.2-0.755Zm-7.937-6h-7.759a0.771,0.771,0,0,0-.762.781,4.643,4.643,0,1,0,9.283,0A0.771,0.771,0,0,0,980.792,882.039Zm-3.879,3.978a3.139,3.139,0,0,1-3.024-2.416h6.047A3.139,3.139,0,0,1,976.913,886.017Zm5.931-8.313a0.751,0.751,0,0,0-1.048-.255l-0.1.063a0.794,0.794,0,0,0-.248,1.076,0.757,0.757,0,0,0,.649.37,0.746,0.746,0,0,0,.4-0.117l0.1-.061A0.794,0.794,0,0,0,982.844,877.7Zm-10.468,0a0.751,0.751,0,0,0-1.048-.255l-0.1.063a0.794,0.794,0,0,0-.248,1.076,0.76,0.76,0,0,0,.649.37,0.746,0.746,0,0,0,.4-0.117l0.1-.061A0.793,0.793,0,0,0,972.376,877.7Zm-13.637,16.962a0.75,0.75,0,0,0-1.077,0,0.8,0.8,0,0,0,0,1.1,0.748,0.748,0,0,0,1.077,0A0.8,0.8,0,0,0,958.739,894.666Zm4.19,0a0.75,0.75,0,0,0-1.077,0,0.8,0.8,0,0,0,0,1.1,0.748,0.748,0,0,0,1.077,0A0.8,0.8,0,0,0,962.929,894.666Zm4.19,0a0.75,0.75,0,0,0-1.077,0,0.8,0.8,0,0,0,0,1.1,0.748,0.748,0,0,0,1.077,0A0.8,0.8,0,0,0,967.119,894.666Zm3.41,6.266a0.748,0.748,0,0,0-1.077,0,0.795,0.795,0,0,0,0,1.1,0.745,0.745,0,0,0,1.077,0A0.795,0.795,0,0,0,970.529,900.932Zm-2.473-30.748a0.75,0.75,0,0,0-1.077,0,0.8,0.8,0,0,0,0,1.106,0.75,0.75,0,0,0,1.077,0A0.8,0.8,0,0,0,968.056,870.184Z" transform="translate(-951.875 -866)"/>
</svg>
