<svg xmlns="http://www.w3.org/2000/svg" width="45" height="40" viewBox="0 0 45 40">
  <metadata><?xpacket begin="﻿" id="W5M0MpCehiHzreSzNTczkc9d"?>
<x:xmpmeta xmlns:x="adobe:ns:meta/" x:xmptk="Adobe XMP Core 5.6-c138 79.159824, 2016/09/14-01:09:01        ">
   <rdf:RDF xmlns:rdf="http://www.w3.org/1999/02/22-rdf-syntax-ns#">
      <rdf:Description rdf:about=""/>
   </rdf:RDF>
</x:xmpmeta>
                                                                                                    
                                                                                                    
                                                                                                    
                                                                                                    
                                                                                                    
                                                                                                    
                                                                                                    
                                                                                                    
                                                                                                    
                                                                                                    
                                                                                                    
                                                                                                    
                                                                                                    
                                                                                                    
                                                                                                    
                                                                                                    
                                                                                                    
                                                                                                    
                                                                                                    
                                                                                                    
                           
<?xpacket end="w"?></metadata>
<defs>
    <style>
      .cls-1 {
        fill: #fff;
        fill-rule: evenodd;
      }
    </style>
  </defs>
  <path id="Forma_1" data-name="Forma 1" class="cls-1" d="M994.173,728.691c0-.028,0-0.056-0.008-0.084l-2.256-16.295a0.913,0.913,0,0,0-.431-0.661,0.849,0.849,0,0,0-.767-0.056l-10.38,4.333a0.924,0.924,0,0,0-.488,1.187,0.868,0.868,0,0,0,1.144.506l9.341-3.9,2.082,15.036a0.9,0.9,0,0,0,.012.127,12.57,12.57,0,0,1-1.4,8.105,11.7,11.7,0,0,1-7.128,5.667,11.328,11.328,0,0,1-8.92-1.229,0.619,0.619,0,0,0-.057-0.03,16.28,16.28,0,0,0,1.644-1.492l10.29-2.863a0.916,0.916,0,0,0,.622-1.117,0.877,0.877,0,0,0-1.077-.646l-7.918,2.2a16.821,16.821,0,0,0,2.016-4.411l7.064-1.965a0.917,0.917,0,0,0,.622-1.118,0.876,0.876,0,0,0-1.077-.645l-5.2,1.446,1.954-3.515,4.131-1.149a0.917,0.917,0,0,0,.621-1.118,0.875,0.875,0,0,0-1.076-.645l-2.433.677,1.871-3.364a0.932,0.932,0,0,0-.322-1.247,0.862,0.862,0,0,0-1.2.334l-1.87,3.364-0.652-2.526a0.875,0.875,0,0,0-1.076-.645,0.917,0.917,0,0,0-.622,1.118l1.107,4.288-1.144,2.057a16.848,16.848,0,0,0-2.129-8.4,16.083,16.083,0,0,0-8.078-7.15l-0.017-.007-3.977-1.676a0.869,0.869,0,0,0-1.145.5,0.925,0.925,0,0,0,.484,1.189l3.941,1.66c0.018,0.009.036,0.016,0.055,0.024a14.293,14.293,0,0,1,7.215,6.369,15.043,15.043,0,0,1,1.4,11.14,14.612,14.612,0,0,1-5.863,8.444L971.6,737.86l3.2-12.392a0.917,0.917,0,0,0-.621-1.118A0.877,0.877,0,0,0,973.1,725l-2.743,10.63-3.254-5.853,2.218-8.6a0.916,0.916,0,0,0-.621-1.118,0.877,0.877,0,0,0-1.077.645l-1.763,6.834-2.566-4.613,1.337-5.177a0.918,0.918,0,0,0-.622-1.118,0.875,0.875,0,0,0-1.076.645l-0.882,3.414-2.43-4.37a0.861,0.861,0,0,0-1.2-.333,0.931,0.931,0,0,0-.321,1.246l2.43,4.37-3.289-.915a0.876,0.876,0,0,0-1.076.646,0.916,0.916,0,0,0,.622,1.117l4.986,1.387,2.565,4.614-6.582-1.831a0.875,0.875,0,0,0-1.076.645,0.917,0.917,0,0,0,.621,1.118l8.28,2.3,3.255,5.852L958.6,733.689a0.876,0.876,0,0,0-1.076.646,0.917,0.917,0,0,0,.621,1.118l11.936,3.32,1.475,2.652a13.9,13.9,0,0,1-18.566-5.78,15.143,15.143,0,0,1-1.691-9.769,1.056,1.056,0,0,0,.012-0.136l2.51-18.136,5.823,2.454a0.868,0.868,0,0,0,1.145-.5,0.925,0.925,0,0,0-.484-1.189l-6.864-2.893a0.854,0.854,0,0,0-.768.055,0.912,0.912,0,0,0-.432.662L949.554,725.6c0,0.031-.007.062-0.008,0.093a17.033,17.033,0,0,0,1.921,10.867,15.791,15.791,0,0,0,13.788,8.235,15.376,15.376,0,0,0,7.181-1.785l1.08,1.943a0.874,0.874,0,0,0,.762.456,0.852,0.852,0,0,0,.439-0.122,0.932,0.932,0,0,0,.321-1.247l-0.4-.72a12.986,12.986,0,0,0,9.706,1.1,13.449,13.449,0,0,0,8.2-6.517A14.456,14.456,0,0,0,994.173,728.691Zm-30.3-18.746a0.857,0.857,0,0,0-1.243,0,0.938,0.938,0,0,0,0,1.292,0.857,0.857,0,0,0,1.243,0A0.94,0.94,0,0,0,963.868,709.945Zm24.489,8.013,0-.008a0.859,0.859,0,0,0-1.228-.2,0.936,0.936,0,0,0-.2,1.275l0,0.007a0.868,0.868,0,0,0,.712.377,0.853,0.853,0,0,0,.516-0.175A0.935,0.935,0,0,0,988.357,717.958Z" transform="translate(-949.344 -705.406)"/>
</svg>
