<svg xmlns="http://www.w3.org/2000/svg" width="32" height="40" viewBox="0 0 32 40">
  <metadata><?xpacket begin="﻿" id="W5M0MpCehiHzreSzNTczkc9d"?>
<x:xmpmeta xmlns:x="adobe:ns:meta/" x:xmptk="Adobe XMP Core 5.6-c138 79.159824, 2016/09/14-01:09:01        ">
   <rdf:RDF xmlns:rdf="http://www.w3.org/1999/02/22-rdf-syntax-ns#">
      <rdf:Description rdf:about=""/>
   </rdf:RDF>
</x:xmpmeta>
                                                                                                    
                                                                                                    
                                                                                                    
                                                                                                    
                                                                                                    
                                                                                                    
                                                                                                    
                                                                                                    
                                                                                                    
                                                                                                    
                                                                                                    
                                                                                                    
                                                                                                    
                                                                                                    
                                                                                                    
                                                                                                    
                                                                                                    
                                                                                                    
                                                                                                    
                                                                                                    
                           
<?xpacket end="w"?></metadata>
<defs>
    <style>
      .cls-1 {
        fill: #e1e1e1;
        fill-rule: evenodd;
      }
    </style>
  </defs>
  <path id="Forma_1" data-name="Forma 1" class="cls-1" d="M982.594,796.875H971.726a0.781,0.781,0,0,0,0,1.562h10.868A0.781,0.781,0,0,0,982.594,796.875Zm-2.641,3.979a0.736,0.736,0,0,0-1.067,0,0.8,0.8,0,0,0,0,1.1,0.738,0.738,0,0,0,1.067,0A0.8,0.8,0,0,0,979.953,800.854Zm-7.694-12.265a0.735,0.735,0,0,0-1.068,0,0.8,0.8,0,0,0,0,1.1,0.737,0.737,0,0,0,1.068,0A0.8,0.8,0,0,0,972.259,788.589Zm3.986,12.036h-4.519a0.781,0.781,0,0,0,0,1.562h4.519A0.781,0.781,0,0,0,976.245,800.625Zm6.349,4.688H971.726a0.781,0.781,0,0,0,0,1.562h10.868A0.781,0.781,0,0,0,982.594,805.313Zm-2.641,3.979a0.734,0.734,0,0,0-1.067,0,0.8,0.8,0,0,0,0,1.1,0.736,0.736,0,0,0,1.067,0A0.8,0.8,0,0,0,979.953,809.292Zm-3.708-.23h-4.519a0.782,0.782,0,0,0,0,1.563h4.519A0.782,0.782,0,0,0,976.245,809.062Zm6.349,4.688H971.726a0.781,0.781,0,0,0,0,1.562h10.868A0.781,0.781,0,0,0,982.594,813.75Zm-2.641,3.979a0.736,0.736,0,0,0-1.067,0,0.8,0.8,0,0,0,0,1.1,0.736,0.736,0,0,0,1.067,0A0.8,0.8,0,0,0,979.953,817.729Zm-3.708-.229h-4.519a0.781,0.781,0,0,0,0,1.562h4.519A0.781,0.781,0,0,0,976.245,817.5Zm7.8-29.453h-5.764a4.544,4.544,0,0,0-3.2-1.328h-0.662a2.973,2.973,0,0,0-5.391,0h-0.663a4.542,4.542,0,0,0-3.2,1.328h-5.763a3.751,3.751,0,0,0-3.68,3.809V821.19a3.751,3.751,0,0,0,3.68,3.81h24.641a3.751,3.751,0,0,0,3.68-3.81V791.856A3.751,3.751,0,0,0,984.046,788.047Zm-15.679.234h1.176a0.758,0.758,0,0,0,.728-0.573,1.5,1.5,0,0,1,2.909,0,0.759,0.759,0,0,0,.728.573h1.175a3.182,3.182,0,0,1,3.121,2.969H965.246A3.182,3.182,0,0,1,968.367,788.281Zm17.85,32.909a2.212,2.212,0,0,1-2.171,2.247H959.405a2.211,2.211,0,0,1-2.17-2.247V791.856a2.212,2.212,0,0,1,2.17-2.247h4.706a4.908,4.908,0,0,0-.386,1.914v0.508a0.768,0.768,0,0,0,.755.781h14.49a0.768,0.768,0,0,0,.754-0.781v-0.508a4.925,4.925,0,0,0-.385-1.914h4.707a2.213,2.213,0,0,1,2.171,2.247V821.19Zm-19.291-24.5a0.736,0.736,0,0,0-1.067,0l-3.227,3.341-1-1.029a0.736,0.736,0,0,0-1.067,0,0.8,0.8,0,0,0,0,1.105l1.528,1.581a0.736,0.736,0,0,0,1.067,0l3.761-3.893A0.8,0.8,0,0,0,966.926,796.687Zm-1.842,17.063h-3.623a0.768,0.768,0,0,0-.754.781v3.75a0.768,0.768,0,0,0,.754.781h3.623a0.769,0.769,0,0,0,.755-0.781v-3.75A0.769,0.769,0,0,0,965.084,813.75Zm-0.755,3.75h-2.113v-2.188h2.113V817.5Zm0.755-12.187h-3.623a0.767,0.767,0,0,0-.754.78v3.751a0.768,0.768,0,0,0,.754.781h3.623a0.769,0.769,0,0,0,.755-0.781v-3.751A0.768,0.768,0,0,0,965.084,805.313Zm-0.755,3.749h-2.113v-2.187h2.113v2.187Z" transform="translate(-955.719 -785)"/>
</svg>
