<svg xmlns="http://www.w3.org/2000/svg" width="24" height="20" viewBox="0 0 24 20">
  <metadata><?xpacket begin="﻿" id="W5M0MpCehiHzreSzNTczkc9d"?>
<x:xmpmeta xmlns:x="adobe:ns:meta/" x:xmptk="Adobe XMP Core 5.6-c138 79.159824, 2016/09/14-01:09:01        ">
   <rdf:RDF xmlns:rdf="http://www.w3.org/1999/02/22-rdf-syntax-ns#">
      <rdf:Description rdf:about=""/>
   </rdf:RDF>
</x:xmpmeta>
                                                                                                    
                                                                                                    
                                                                                                    
                                                                                                    
                                                                                                    
                                                                                                    
                                                                                                    
                                                                                                    
                                                                                                    
                                                                                                    
                                                                                                    
                                                                                                    
                                                                                                    
                                                                                                    
                                                                                                    
                                                                                                    
                                                                                                    
                                                                                                    
                                                                                                    
                                                                                                    
                           
<?xpacket end="w"?></metadata>
<defs>
    <style>
      .cls-1 {
        fill: #fff;
        fill-rule: evenodd;
      }
    </style>
  </defs>
  <path id="Forma_1" data-name="Forma 1" class="cls-1" d="M948.75,2181.92h9a0.682,0.682,0,0,0,.75-0.57v-1.16a0.675,0.675,0,0,0-.75-0.57h-9a0.675,0.675,0,0,0-.75.57v1.16A0.682,0.682,0,0,0,948.75,2181.92Zm0,3.08h9a0.681,0.681,0,0,0,.75-0.58v-1.15a0.681,0.681,0,0,0-.75-0.58h-9a0.681,0.681,0,0,0-.75.58v1.15A0.681,0.681,0,0,0,948.75,2185Zm0-6.15h9a0.681,0.681,0,0,0,.75-0.58v-1.15a0.681,0.681,0,0,0-.75-0.58h-9a0.681,0.681,0,0,0-.75.58v1.15A0.681,0.681,0,0,0,948.75,2178.85Zm11.217-.31a2.073,2.073,0,0,0,.033-0.27v-1.15a2.164,2.164,0,0,0-2.25-2.12h-3a3.751,3.751,0,1,1,7.5,0A3.854,3.854,0,0,1,959.967,2178.54ZM948,2168.08h21v13.84h-9.089a2.011,2.011,0,0,0,.089-0.57v-0.97h4.5a3.039,3.039,0,0,1,3-3.07v-4.62a3.039,3.039,0,0,1-3-3.07h-12a3.039,3.039,0,0,1-3,3.07V2175h-0.75a2.611,2.611,0,0,0-.75.12v-7.04Zm24-3.08v15.38h-1.5v-13.84h-21V2165H972Z" transform="translate(-948 -2165)"/>
</svg>
