<svg xmlns="http://www.w3.org/2000/svg" width="49" height="50" viewBox="0 0 49 50">
  <metadata><?xpacket begin="﻿" id="W5M0MpCehiHzreSzNTczkc9d"?>
<x:xmpmeta xmlns:x="adobe:ns:meta/" x:xmptk="Adobe XMP Core 5.6-c138 79.159824, 2016/09/14-01:09:01        ">
   <rdf:RDF xmlns:rdf="http://www.w3.org/1999/02/22-rdf-syntax-ns#">
      <rdf:Description rdf:about=""/>
   </rdf:RDF>
</x:xmpmeta>
                                                                                                    
                                                                                                    
                                                                                                    
                                                                                                    
                                                                                                    
                                                                                                    
                                                                                                    
                                                                                                    
                                                                                                    
                                                                                                    
                                                                                                    
                                                                                                    
                                                                                                    
                                                                                                    
                                                                                                    
                                                                                                    
                                                                                                    
                                                                                                    
                                                                                                    
                                                                                                    
                           
<?xpacket end="w"?></metadata>
<defs>
    <style>
      .cls-1 {
        fill: #acacac;
        fill-rule: evenodd;
      }
    </style>
  </defs>
  <path class="cls-1" d="M743.509,1517.09l-0.093-.89a3.8,3.8,0,0,0-3.521-3.4l-0.741-.04a7.9,7.9,0,0,0-5.976,2.35l-7.412,7.5-24.273-.04a7.748,7.748,0,0,0-5.513,2.35l-1.019,1.04a1.615,1.615,0,0,0-.371,1.37,1.412,1.412,0,0,0,.927.99l19.317,5.38-4.494,4.57-8.153.28a2.938,2.938,0,0,0-2.223,1l-0.788.8a1.508,1.508,0,0,0-.37,1.32,1.559,1.559,0,0,0,.88.99l10.377,4.01,4.169,10.94a1.327,1.327,0,0,0,1.065.85,1.346,1.346,0,0,0,1.2-.47l0.833-.85a3.628,3.628,0,0,0,.973-2.27l0.278-8.34,4.54-4.53,5.235,19.71a1.474,1.474,0,0,0,.972.99,0.952,0.952,0,0,0,.371.05,1.431,1.431,0,0,0,1.019-.42l1.019-1.04a8.075,8.075,0,0,0,2.316-5.66v-24.72l7.181-7.35A7.862,7.862,0,0,0,743.509,1517.09Zm-3.567,5.15-7.5,7.64a0.935,0.935,0,0,0-.278.66v25.09a6.283,6.283,0,0,1-1.76,4.34l-0.463.47-5.513-20.42a0.918,0.918,0,0,0-.649-0.66c-0.092,0-.138-0.05-0.231-0.05a0.9,0.9,0,0,0-.649.28l-5.929,5.95a0.841,0.841,0,0,0-.278.66l-0.278,8.67a1.321,1.321,0,0,1-.417.99l-0.324.33-4.03-10.61a0.913,0.913,0,0,0-.556-0.52l-10.053-3.91,0.278-.28a1.421,1.421,0,0,1,.973-0.43l8.57-.28a0.764,0.764,0,0,0,.6-0.28l5.883-5.99a0.942,0.942,0,0,0-.416-1.56l-20.105-5.61,0.463-.48a5.956,5.956,0,0,1,4.216-1.79l24.644,0.05a0.9,0.9,0,0,0,.649-0.28l7.689-7.79a6.012,6.012,0,0,1,4.587-1.79l0.741,0.05a1.9,1.9,0,0,1,1.76,1.7l0.093,0.89A6.139,6.139,0,0,1,739.942,1522.24Z" transform="translate(-694.563 -1512.75)"/>
</svg>
