<svg xmlns="http://www.w3.org/2000/svg" width="20" height="20" viewBox="0 0 20 20">
  <metadata><?xpacket begin="﻿" id="W5M0MpCehiHzreSzNTczkc9d"?>
<x:xmpmeta xmlns:x="adobe:ns:meta/" x:xmptk="Adobe XMP Core 5.6-c138 79.159824, 2016/09/14-01:09:01        ">
   <rdf:RDF xmlns:rdf="http://www.w3.org/1999/02/22-rdf-syntax-ns#">
      <rdf:Description rdf:about=""/>
   </rdf:RDF>
</x:xmpmeta>
                                                                                                    
                                                                                                    
                                                                                                    
                                                                                                    
                                                                                                    
                                                                                                    
                                                                                                    
                                                                                                    
                                                                                                    
                                                                                                    
                                                                                                    
                                                                                                    
                                                                                                    
                                                                                                    
                                                                                                    
                                                                                                    
                                                                                                    
                                                                                                    
                                                                                                    
                                                                                                    
                           
<?xpacket end="w"?></metadata>
<defs>
    <style>
      .cls-1 {
        fill: #fff;
        fill-rule: evenodd;
      }
    </style>
  </defs>
  <path id="Forma_1" data-name="Forma 1" class="cls-1" d="M647.5,2180H637.091l-4.375-10H630v-1.25h3.534l4.375,10H647.5V2180Zm-6.25,3.13a1.875,1.875,0,1,1-1.875-1.88A1.875,1.875,0,0,1,641.25,2183.13Zm6.25,0a1.875,1.875,0,1,1-1.875-1.88A1.875,1.875,0,0,1,647.5,2183.13ZM645.625,2165a4.375,4.375,0,1,0,4.375,4.37A4.375,4.375,0,0,0,645.625,2165Zm2.5,5H646.25v1.87H645V2170h-1.875v-1.25H645v-1.88h1.25v1.88h1.875V2170Zm-2.5,5a5.614,5.614,0,0,1-5.28-3.75h-4.1l2.5,6.25h8.75l1.443-3.61A5.559,5.559,0,0,1,645.625,2175Z" transform="translate(-630 -2165)"/>
</svg>
