<svg xmlns="http://www.w3.org/2000/svg" width="20" height="20" viewBox="0 0 20 20">
  <metadata><?xpacket begin="﻿" id="W5M0MpCehiHzreSzNTczkc9d"?>
<x:xmpmeta xmlns:x="adobe:ns:meta/" x:xmptk="Adobe XMP Core 5.6-c138 79.159824, 2016/09/14-01:09:01        ">
   <rdf:RDF xmlns:rdf="http://www.w3.org/1999/02/22-rdf-syntax-ns#">
      <rdf:Description rdf:about=""/>
   </rdf:RDF>
</x:xmpmeta>
                                                                                                    
                                                                                                    
                                                                                                    
                                                                                                    
                                                                                                    
                                                                                                    
                                                                                                    
                                                                                                    
                                                                                                    
                                                                                                    
                                                                                                    
                                                                                                    
                                                                                                    
                                                                                                    
                                                                                                    
                                                                                                    
                                                                                                    
                                                                                                    
                                                                                                    
                                                                                                    
                           
<?xpacket end="w"?></metadata>
<defs>
    <style>
      .cls-1 {
        fill: #fff;
        fill-rule: evenodd;
      }
    </style>
  </defs>
  <path id="Forma_1" data-name="Forma 1" class="cls-1" d="M309,2173.13a2.5,2.5,0,0,0,1.875,2.41v8.21h-1.25a0.625,0.625,0,1,0,0,1.25h18.75a0.625,0.625,0,1,0,0-1.25h-1.25v-8.21a2.5,2.5,0,0,0,1.875-2.41v-0.63H309v0.63Zm12.5,2.5a2.5,2.5,0,0,0,2.5-2.5,2.5,2.5,0,0,0,1.875,2.41v8.21H316.5v-8.12a2.5,2.5,0,0,0,2.5-2.5A2.5,2.5,0,0,0,321.5,2175.63Zm-5.625-.09v8.21h-3.75v-8.21a2.5,2.5,0,0,0,1.875-2.41A2.5,2.5,0,0,0,315.875,2175.54Zm10.625-8.67h-15l-2.5,5h20Zm-12.219,1.39-1.25,2.5a0.321,0.321,0,0,1-.281.18,0.245,0.245,0,0,1-.139-0.04,0.3,0.3,0,0,1-.139-0.41l1.25-2.5A0.31,0.31,0,0,1,314.281,2168.26Zm2.5,0-1.25,2.5a0.321,0.321,0,0,1-.281.18,0.245,0.245,0,0,1-.139-0.04,0.3,0.3,0,0,1-.139-0.41l1.25-2.5A0.31,0.31,0,0,1,316.781,2168.26Zm2.531,2.36a0.313,0.313,0,1,1-.625,0v-2.5a0.313,0.313,0,0,1,.625,0v2.5Zm3.589,0.28a0.279,0.279,0,0,1-.151.04,0.315,0.315,0,0,1-.273-0.16l-1.368-2.5a0.316,0.316,0,0,1,.125-0.43,0.311,0.311,0,0,1,.425.13l1.367,2.49A0.319,0.319,0,0,1,322.9,2170.9Zm2.488,0a0.236,0.236,0,0,1-.139.04,0.314,0.314,0,0,1-.278-0.18l-1.25-2.5a0.3,0.3,0,0,1,.139-0.41,0.308,0.308,0,0,1,.42.14l1.25,2.5A0.3,0.3,0,0,1,325.389,2170.9Zm-11.077,9.2v-1.45a0.618,0.618,0,0,1-.312-0.53,0.625,0.625,0,0,1,1.25,0,0.616,0.616,0,0,1-.312.53v1.45a0.612,0.612,0,0,1,.312.52,0.625,0.625,0,1,1-1.25,0A0.614,0.614,0,0,1,314.312,2180.1Zm-2.812-14.47a0.627,0.627,0,0,1,.625-0.63h13.75a0.625,0.625,0,1,1,0,1.25h-13.75A0.625,0.625,0,0,1,311.5,2165.63Zm8.455,13.34-0.442-.44,1.767-1.77,0.442,0.44Zm0,1.77-0.442-.44,3.535-3.54,0.442,0.44Zm3.093-2.21,0.442,0.44-1.768,1.77-0.442-.44Z" transform="translate(-309 -2165)"/>
</svg>
