<svg xmlns="http://www.w3.org/2000/svg" width="24" height="20" viewBox="0 0 24 20">
  <metadata><?xpacket begin="﻿" id="W5M0MpCehiHzreSzNTczkc9d"?>
<x:xmpmeta xmlns:x="adobe:ns:meta/" x:xmptk="Adobe XMP Core 5.6-c138 79.159824, 2016/09/14-01:09:01        ">
   <rdf:RDF xmlns:rdf="http://www.w3.org/1999/02/22-rdf-syntax-ns#">
      <rdf:Description rdf:about=""/>
   </rdf:RDF>
</x:xmpmeta>
                                                                                                    
                                                                                                    
                                                                                                    
                                                                                                    
                                                                                                    
                                                                                                    
                                                                                                    
                                                                                                    
                                                                                                    
                                                                                                    
                                                                                                    
                                                                                                    
                                                                                                    
                                                                                                    
                                                                                                    
                                                                                                    
                                                                                                    
                                                                                                    
                                                                                                    
                                                                                                    
                           
<?xpacket end="w"?></metadata>
<defs>
    <style>
      .cls-1 {
        fill: #fff;
        fill-rule: evenodd;
      }
    </style>
  </defs>
  <path id="Forma_1" data-name="Forma 1" class="cls-1" d="M1107,2165v15.38h12v-1.53h-10.5v-12.31h21V2175h0.75a2.269,2.269,0,0,1,.75.13V2165h-24Zm23.25,11.54h-9a0.685,0.685,0,0,0-.75.58v1.15a0.685,0.685,0,0,0,.75.58h9a0.685,0.685,0,0,0,.75-0.58v-1.15A0.685,0.685,0,0,0,1130.25,2176.54Zm-10.5-3.46h-0.37v1.54h0.37a0.35,0.35,0,0,0,.37-0.39v-0.77A0.337,0.337,0,0,0,1119.75,2173.08Zm10.5,9.61h-9a0.685,0.685,0,0,0-.75.58v1.15a0.685,0.685,0,0,0,.75.58h9a0.685,0.685,0,0,0,.75-0.58v-1.15A0.685,0.685,0,0,0,1130.25,2182.69Zm-9.79-7.55a2.3,2.3,0,0,1,.79-0.14H1128v-6.92h-18v9.23h9v-0.19a2.054,2.054,0,0,1,1.02-1.78,1.471,1.471,0,0,1-.27.04h-0.37v0.39a0.38,0.38,0,0,1-.38.38,0.371,0.371,0,0,1-.37-0.38v-0.39h-1.13a0.38,0.38,0,0,1,0-.76h1.13v-1.54h-0.38a1.107,1.107,0,0,1-1.12-1.16v-0.77a1.1,1.1,0,0,1,1.12-1.15h0.38v-0.38a0.374,0.374,0,0,1,.37-0.39,0.382,0.382,0,0,1,.38.39V2170h1.12a0.385,0.385,0,0,1,0,.77h-1.12v1.54h0.37a1.1,1.1,0,0,1,1.12,1.15v0.77A1.1,1.1,0,0,1,1120.46,2175.14Zm3.04-3.22h3v1.54h-3v-1.54Zm-9,1.54h-3v-1.54h3v1.54Zm15.75,6.16h-9a0.678,0.678,0,0,0-.75.57v1.16a0.685,0.685,0,0,0,.75.57h9a0.685,0.685,0,0,0,.75-0.57v-1.16A0.678,0.678,0,0,0,1130.25,2179.62Zm-12.37-8.47v0.77a0.35,0.35,0,0,0,.37.39h0.38v-1.54h-0.38A0.337,0.337,0,0,0,1117.88,2171.15Z" transform="translate(-1107 -2165)"/>
</svg>
