<svg xmlns="http://www.w3.org/2000/svg" width="50" height="43" viewBox="0 0 50 43">
  <metadata><?xpacket begin="﻿" id="W5M0MpCehiHzreSzNTczkc9d"?>
<x:xmpmeta xmlns:x="adobe:ns:meta/" x:xmptk="Adobe XMP Core 5.6-c138 79.159824, 2016/09/14-01:09:01        ">
   <rdf:RDF xmlns:rdf="http://www.w3.org/1999/02/22-rdf-syntax-ns#">
      <rdf:Description rdf:about=""/>
   </rdf:RDF>
</x:xmpmeta>
                                                                                                    
                                                                                                    
                                                                                                    
                                                                                                    
                                                                                                    
                                                                                                    
                                                                                                    
                                                                                                    
                                                                                                    
                                                                                                    
                                                                                                    
                                                                                                    
                                                                                                    
                                                                                                    
                                                                                                    
                                                                                                    
                                                                                                    
                                                                                                    
                                                                                                    
                                                                                                    
                           
<?xpacket end="w"?></metadata>
<defs>
    <style>
      .cls-1 {
        fill: #acacac;
        fill-rule: evenodd;
      }
    </style>
  </defs>
  <path class="cls-1" d="M1051.52,1784.85a4.575,4.575,0,1,0,4.64,4.58A4.624,4.624,0,0,0,1051.52,1784.85Zm0,7.32a2.745,2.745,0,1,1,2.78-2.74A2.774,2.774,0,0,1,1051.52,1792.17Zm-18.56-7.32a4.575,4.575,0,1,0,4.64,4.58A4.624,4.624,0,0,0,1032.96,1784.85Zm0,7.32a2.745,2.745,0,1,1,2.78-2.74A2.774,2.774,0,0,1,1032.96,1792.17Zm31.55-33.58a2.773,2.773,0,0,0-2.27-1.19h-37.87l-0.55-2.74a4.572,4.572,0,0,0-4.55-3.66h-3.34a0.915,0.915,0,1,0,0,1.83h3.34a2.685,2.685,0,0,1,2.69,2.2l0.7,3.47a0.614,0.614,0,0,0,.09.28l3.99,20.58a4.7,4.7,0,0,0,4.59,3.71h21.72a4.668,4.668,0,0,0,4.36-2.98l7.38-18.93A2.673,2.673,0,0,0,1064.51,1758.59Zm-1.44,1.88-7.38,18.94a2.722,2.722,0,0,1-2.59,1.78h-21.72a2.858,2.858,0,0,1-2.74-2.24l-2.78-14.23h21.9a0.915,0.915,0,1,0,0-1.83h-22.27l-0.7-3.66h37.45a0.914,0.914,0,0,1,.74.37A0.858,0.858,0,0,1,1063.07,1760.47Zm-9.74,2.42h-1.39a0.915,0.915,0,1,0,0,1.83h1.39A0.915,0.915,0,1,0,1053.33,1762.89Z" transform="translate(-1015 -1751)"/>
</svg>
