<svg xmlns="http://www.w3.org/2000/svg" width="50" height="39" viewBox="0 0 50 39">
  <metadata><?xpacket begin="﻿" id="W5M0MpCehiHzreSzNTczkc9d"?>
<x:xmpmeta xmlns:x="adobe:ns:meta/" x:xmptk="Adobe XMP Core 5.6-c138 79.159824, 2016/09/14-01:09:01        ">
   <rdf:RDF xmlns:rdf="http://www.w3.org/1999/02/22-rdf-syntax-ns#">
      <rdf:Description rdf:about=""/>
   </rdf:RDF>
</x:xmpmeta>
                                                                                                    
                                                                                                    
                                                                                                    
                                                                                                    
                                                                                                    
                                                                                                    
                                                                                                    
                                                                                                    
                                                                                                    
                                                                                                    
                                                                                                    
                                                                                                    
                                                                                                    
                                                                                                    
                                                                                                    
                                                                                                    
                                                                                                    
                                                                                                    
                                                                                                    
                                                                                                    
                           
<?xpacket end="w"?></metadata>
<defs>
    <style>
      .cls-1 {
        fill: #acacac;
        fill-rule: evenodd;
      }
    </style>
  </defs>
  <path class="cls-1" d="M739.536,1779.59H737.75v-4.43a4.458,4.458,0,0,0-4.464-4.43H719.893v-5.32h1.786a4.465,4.465,0,0,0,4.464-4.43v-3.55a4.458,4.458,0,0,0-4.464-4.43h-5.358a4.458,4.458,0,0,0-4.464,4.43v3.55a4.465,4.465,0,0,0,4.464,4.43h1.786v5.32H704.714a4.458,4.458,0,0,0-4.464,4.43v4.43h-1.786a4.458,4.458,0,0,0-4.464,4.43v3.55a4.458,4.458,0,0,0,4.464,4.43h5.357a4.458,4.458,0,0,0,4.465-4.43v-3.55a4.458,4.458,0,0,0-4.465-4.43h-1.785v-4.43a2.679,2.679,0,0,1,2.678-2.66h13.393v7.09h-1.786a4.458,4.458,0,0,0-4.464,4.43v3.55a4.458,4.458,0,0,0,4.464,4.43h5.358a4.458,4.458,0,0,0,4.464-4.43v-3.55a4.458,4.458,0,0,0-4.464-4.43h-1.786v-7.09h13.393a2.679,2.679,0,0,1,2.678,2.66v4.43h-1.785a4.458,4.458,0,0,0-4.465,4.43v3.55a4.458,4.458,0,0,0,4.465,4.43h5.357a4.458,4.458,0,0,0,4.464-4.43v-3.55A4.458,4.458,0,0,0,739.536,1779.59Zm-35.715,1.77a2.679,2.679,0,0,1,2.679,2.66v3.55a2.679,2.679,0,0,1-2.679,2.66h-5.357a2.679,2.679,0,0,1-2.678-2.66v-3.55a2.679,2.679,0,0,1,2.678-2.66h5.357Zm17.858,0a2.679,2.679,0,0,1,2.678,2.66v3.55a2.679,2.679,0,0,1-2.678,2.66h-5.358a2.679,2.679,0,0,1-2.678-2.66v-3.55a2.679,2.679,0,0,1,2.678-2.66h5.358Zm-5.358-17.72a2.679,2.679,0,0,1-2.678-2.66v-3.55a2.679,2.679,0,0,1,2.678-2.66h5.358a2.679,2.679,0,0,1,2.678,2.66v3.55a2.679,2.679,0,0,1-2.678,2.66h-5.358Zm25.893,23.93a2.679,2.679,0,0,1-2.678,2.66h-5.357a2.679,2.679,0,0,1-2.679-2.66v-3.55a2.679,2.679,0,0,1,2.679-2.66h5.357a2.679,2.679,0,0,1,2.678,2.66v3.55Z" transform="translate(-694 -1753)"/>
</svg>
