<svg xmlns="http://www.w3.org/2000/svg" width="19" height="20.03" viewBox="0 0 19 20.03">
  <metadata><?xpacket begin="﻿" id="W5M0MpCehiHzreSzNTczkc9d"?>
<x:xmpmeta xmlns:x="adobe:ns:meta/" x:xmptk="Adobe XMP Core 5.6-c138 79.159824, 2016/09/14-01:09:01        ">
   <rdf:RDF xmlns:rdf="http://www.w3.org/1999/02/22-rdf-syntax-ns#">
      <rdf:Description rdf:about=""/>
   </rdf:RDF>
</x:xmpmeta>
                                                                                                    
                                                                                                    
                                                                                                    
                                                                                                    
                                                                                                    
                                                                                                    
                                                                                                    
                                                                                                    
                                                                                                    
                                                                                                    
                                                                                                    
                                                                                                    
                                                                                                    
                                                                                                    
                                                                                                    
                                                                                                    
                                                                                                    
                                                                                                    
                                                                                                    
                                                                                                    
                           
<?xpacket end="w"?></metadata>
<defs>
    <style>
      .cls-1 {
        fill: #fff;
        fill-rule: evenodd;
      }
    </style>
  </defs>
  <path id="Forma_1" data-name="Forma 1" class="cls-1" d="M476.937,2178.28v-2.5a1.22,1.22,0,0,0-1.187-1.25h-2.375a1.22,1.22,0,0,0-1.188,1.25v2.5a1.22,1.22,0,0,0-1.187,1.25v3.75a1.22,1.22,0,0,0,1.187,1.25h4.75a1.22,1.22,0,0,0,1.188-1.25v-3.75A1.22,1.22,0,0,0,476.937,2178.28Zm-1.781,3.75a0.595,0.595,0,1,1-1.187,0v-1.25a0.594,0.594,0,1,1,1.187,0v1.25Zm0.594-3.75h-2.375v-2.5h2.375v2.5Zm2.831-11.87a1.29,1.29,0,0,1,.435-1.71,1.151,1.151,0,0,1,1.622.46l0.02,0.03a1.133,1.133,0,0,1,2.059,0l0.02-.03a1.151,1.151,0,0,1,1.622-.46,1.289,1.289,0,0,1,.435,1.71l-0.731,2.18h-4.751Zm6.075,3.75a0.3,0.3,0,0,1-.3.31h-5.343a0.316,0.316,0,0,1,0-.63h5.343A0.307,0.307,0,0,1,484.656,2170.16Zm0-.94a0.3,0.3,0,0,1-.3.31h-5.343a0.31,0.31,0,0,1,0-.62h5.343A0.3,0.3,0,0,1,484.656,2169.22Zm4.238,12.95a7.657,7.657,0,0,0-1.195-6.39c-1.262-1.83-1.447-.62-3.636-5h-4.751c-1.243,2.49-1.84,3.17-2.355,3.63a1.908,1.908,0,0,1,.574,1.37v1.98a1.885,1.885,0,0,1,1.188,1.77v3.75a1.914,1.914,0,0,1-.464,1.25h11.636a1.942,1.942,0,0,0,.109-0.62A1.88,1.88,0,0,0,488.894,2182.17Zm-1.14-.35-0.3,1.08a10.993,10.993,0,0,0-2.129-5.83,9.052,9.052,0,0,1-1.971-5.04,9.93,9.93,0,0,0,2.522,3.53,4.479,4.479,0,0,1,.862.95A6.346,6.346,0,0,1,487.754,2181.82Z" transform="translate(-471 -2164.5)"/>
</svg>
