<svg xmlns="http://www.w3.org/2000/svg" width="52" height="50" viewBox="0 0 52 50">
  <metadata><?xpacket begin="﻿" id="W5M0MpCehiHzreSzNTczkc9d"?>
<x:xmpmeta xmlns:x="adobe:ns:meta/" x:xmptk="Adobe XMP Core 5.6-c138 79.159824, 2016/09/14-01:09:01        ">
   <rdf:RDF xmlns:rdf="http://www.w3.org/1999/02/22-rdf-syntax-ns#">
      <rdf:Description rdf:about=""/>
   </rdf:RDF>
</x:xmpmeta>
                                                                                                    
                                                                                                    
                                                                                                    
                                                                                                    
                                                                                                    
                                                                                                    
                                                                                                    
                                                                                                    
                                                                                                    
                                                                                                    
                                                                                                    
                                                                                                    
                                                                                                    
                                                                                                    
                                                                                                    
                                                                                                    
                                                                                                    
                                                                                                    
                                                                                                    
                                                                                                    
                           
<?xpacket end="w"?></metadata>
<defs>
    <style>
      .cls-1 {
        fill: #acacac;
        fill-rule: evenodd;
      }
    </style>
  </defs>
  <path class="cls-1" d="M418.571,1765.92a18.574,18.574,0,1,0-37.142-.05v0.05a7.945,7.945,0,0,0-7.429,7.97v0.94a7.954,7.954,0,0,0,7.893,8.02h0.418l3.3,5.33a12.383,12.383,0,0,0,10.632,5.99h0.65a3.776,3.776,0,1,0,0-1.89h-0.65a10.55,10.55,0,0,1-9.053-5.14l-2.693-4.29h0.65a1.879,1.879,0,0,0,1.857-1.89v-13.21a1.877,1.877,0,0,0-1.857-1.88h-1.857a16.716,16.716,0,1,1,33.428,0h-1.857a1.877,1.877,0,0,0-1.857,1.88v13.21a1.879,1.879,0,0,0,1.857,1.89h3.25a7.954,7.954,0,0,0,7.893-8.02v-0.94A7.945,7.945,0,0,0,418.571,1765.92Zm-18.107,25.42a1.885,1.885,0,1,1-1.857,1.89A1.878,1.878,0,0,1,400.464,1791.34Zm-15.321-23.59v13.21h-3.25a6.068,6.068,0,0,1-6.036-6.13v-0.94a6.077,6.077,0,0,1,6.036-6.14h3.25Zm39,7.08a6.068,6.068,0,0,1-6.036,6.13h-3.25v-13.21h3.25a6.077,6.077,0,0,1,6.036,6.14v0.94Zm-16.436-20.71a3.438,3.438,0,0,1-.371-0.23,3.9,3.9,0,0,0-.372-0.24,0.869,0.869,0,0,0-1.253.33,0.928,0.928,0,0,0,.325,1.27c0.093,0.05.232,0.15,0.371,0.24a2.237,2.237,0,0,0,.418.24,0.923,0.923,0,0,0,.464.14,0.86,0.86,0,0,0,.79-0.47A0.969,0.969,0,0,0,407.707,1754.12Zm-7.707-2.4a13.351,13.351,0,0,0-10.214,4.76,0.966,0.966,0,0,0,.093,1.32,0.98,0.98,0,0,0,.6.24,0.847,0.847,0,0,0,.7-0.33A11.621,11.621,0,0,1,400,1753.6a11.283,11.283,0,0,1,2.507.29,0.944,0.944,0,0,0,.418-1.84A12.155,12.155,0,0,0,400,1751.72Z" transform="translate(-374 -1747)"/>
</svg>
