<svg xmlns="http://www.w3.org/2000/svg" width="48.97" height="50" viewBox="0 0 48.97 50">
  <metadata><?xpacket begin="﻿" id="W5M0MpCehiHzreSzNTczkc9d"?>
<x:xmpmeta xmlns:x="adobe:ns:meta/" x:xmptk="Adobe XMP Core 5.6-c138 79.159824, 2016/09/14-01:09:01        ">
   <rdf:RDF xmlns:rdf="http://www.w3.org/1999/02/22-rdf-syntax-ns#">
      <rdf:Description rdf:about=""/>
   </rdf:RDF>
</x:xmpmeta>
                                                                                                    
                                                                                                    
                                                                                                    
                                                                                                    
                                                                                                    
                                                                                                    
                                                                                                    
                                                                                                    
                                                                                                    
                                                                                                    
                                                                                                    
                                                                                                    
                                                                                                    
                                                                                                    
                                                                                                    
                                                                                                    
                                                                                                    
                                                                                                    
                                                                                                    
                                                                                                    
                           
<?xpacket end="w"?></metadata>
<defs>
    <style>
      .cls-1 {
        fill: #acacac;
        fill-rule: evenodd;
      }
    </style>
  </defs>
  <path class="cls-1" d="M1061.81,1558.53h-7.79c1.07-.92,2.19-1.96,2.72-2.5a25.4,25.4,0,0,0,0-35.36,24.521,24.521,0,0,0-12.37-6.86,1.135,1.135,0,0,0-1.28.82,1.154,1.154,0,0,0,.8,1.31,22.374,22.374,0,0,1,11.31,6.25,23.2,23.2,0,0,1,0,32.32c-0.59.6-1.93,1.85-3.05,2.77v-8.54a1.065,1.065,0,1,0-2.13,0v10.88a1.082,1.082,0,0,0,1.07,1.09h10.67a1.08,1.08,0,0,0,1.06-1.09A1.033,1.033,0,0,0,1061.81,1558.53Zm-19.85,2.51a22.081,22.081,0,0,1-18.4-6.53,23.178,23.178,0,0,1,0-32.32,21.209,21.209,0,0,1,5.17-3.92v8.71a1.07,1.07,0,1,0,2.14,0V1516.1a1.082,1.082,0,0,0-1.07-1.09h-10.67a1.09,1.09,0,0,0,0,2.18h7.2a25.226,25.226,0,0,0-4.26,38.84,24.162,24.162,0,0,0,17.28,7.34,25.272,25.272,0,0,0,2.88-.16,1.084,1.084,0,0,0,.96-1.2A1.158,1.158,0,0,0,1041.96,1561.04Zm-5.81-45.32h0.11l1.6-.17a1.091,1.091,0,0,0-.22-2.17l-1.6.16A1.094,1.094,0,0,0,1036.15,1515.72Z" transform="translate(-1014.94 -1513.38)"/>
</svg>
