<svg xmlns="http://www.w3.org/2000/svg" width="45" height="40" viewBox="0 0 45 40">
  <metadata><?xpacket begin="﻿" id="W5M0MpCehiHzreSzNTczkc9d"?>
<x:xmpmeta xmlns:x="adobe:ns:meta/" x:xmptk="Adobe XMP Core 5.6-c138 79.159824, 2016/09/14-01:09:01        ">
   <rdf:RDF xmlns:rdf="http://www.w3.org/1999/02/22-rdf-syntax-ns#">
      <rdf:Description rdf:about=""/>
   </rdf:RDF>
</x:xmpmeta>
                                                                                                    
                                                                                                    
                                                                                                    
                                                                                                    
                                                                                                    
                                                                                                    
                                                                                                    
                                                                                                    
                                                                                                    
                                                                                                    
                                                                                                    
                                                                                                    
                                                                                                    
                                                                                                    
                                                                                                    
                                                                                                    
                                                                                                    
                                                                                                    
                                                                                                    
                                                                                                    
                           
<?xpacket end="w"?></metadata>
<defs>
    <style>
      .cls-1 {
        fill: #acacac;
        fill-rule: evenodd;
      }
    </style>
  </defs>
  <path class="cls-1" d="M411.773,1541.95a4.212,4.212,0,1,0,4.091,4.21A4.161,4.161,0,0,0,411.773,1541.95Zm0,6.31a2.106,2.106,0,1,1,2.045-2.1A2.077,2.077,0,0,1,411.773,1548.26Zm5.113-18.94h-0.511v-1.06a5.206,5.206,0,0,0-5.114-5.26H382.114a5.206,5.206,0,0,0-5.114,5.26v29.48a5.206,5.206,0,0,0,5.114,5.26h34.772a5.206,5.206,0,0,0,5.114-5.26v-23.16A5.2,5.2,0,0,0,416.886,1529.32Zm3.069,28.42a3.121,3.121,0,0,1-3.069,3.15H382.114a3.121,3.121,0,0,1-3.069-3.15v-29.48a3.121,3.121,0,0,1,3.069-3.15h29.147a3.121,3.121,0,0,1,3.069,3.15v1.06H389.273a1.05,1.05,0,0,0,0,2.1h27.613a3.123,3.123,0,0,1,3.069,3.16v23.16Zm-35.285-28.42h-1.534a1.05,1.05,0,0,0,0,2.1h1.534A1.05,1.05,0,0,0,384.67,1529.32Z" transform="translate(-377 -1523)"/>
</svg>
